<mxfile host="app.diagrams.net" modified="2021-06-21T05:24:31.037Z" agent="5.0 (Macintosh; Intel Mac OS X 10_15_7) AppleWebKit/537.36 (KHTML, like Gecko) Chrome/91.0.4472.106 Safari/537.36" etag="MM_0ro0kRTwWe2jCTdv9" version="14.8.0" type="github">
  <diagram id="UanFxDfiVa48uD2jYfIT" name="第 1 页">
    <mxGraphModel dx="1426" dy="794" grid="0" gridSize="10" guides="1" tooltips="1" connect="1" arrows="1" fold="1" page="1" pageScale="1" pageWidth="827" pageHeight="1169" math="0" shadow="0">
      <root>
        <mxCell id="0" />
        <mxCell id="1" parent="0" />
        <mxCell id="JTKkzrfcodYLNeWdXCRE-1" value="磁盘" style="shape=cylinder3;whiteSpace=wrap;html=1;boundedLbl=1;backgroundOutline=1;size=15;verticalAlign=bottom;" vertex="1" parent="1">
          <mxGeometry x="129" y="555" width="204" height="187" as="geometry" />
        </mxCell>
        <mxCell id="JTKkzrfcodYLNeWdXCRE-2" value="" style="verticalLabelPosition=bottom;verticalAlign=top;html=1;shape=mxgraph.basic.rounded_frame;dx=10;" vertex="1" parent="1">
          <mxGeometry x="183" y="520" width="100" height="60" as="geometry" />
        </mxCell>
        <mxCell id="JTKkzrfcodYLNeWdXCRE-3" value="buffer" style="text;html=1;align=center;verticalAlign=middle;resizable=0;points=[];autosize=1;strokeColor=none;" vertex="1" parent="1">
          <mxGeometry x="213" y="541" width="40" height="18" as="geometry" />
        </mxCell>
        <mxCell id="JTKkzrfcodYLNeWdXCRE-4" value="扇区" style="verticalLabelPosition=bottom;verticalAlign=top;html=1;shape=mxgraph.basic.layered_rect;dx=10;outlineConnect=0;align=center;" vertex="1" parent="1">
          <mxGeometry x="181" y="612" width="100" height="60" as="geometry" />
        </mxCell>
        <mxCell id="JTKkzrfcodYLNeWdXCRE-5" value="RAM" style="rounded=0;whiteSpace=wrap;html=1;align=center;verticalAlign=middle;" vertex="1" parent="1">
          <mxGeometry x="347" y="294" width="215" height="60" as="geometry" />
        </mxCell>
        <mxCell id="JTKkzrfcodYLNeWdXCRE-6" value="" style="shape=flexArrow;endArrow=classic;startArrow=classic;html=1;strokeWidth=2;" edge="1" parent="1">
          <mxGeometry width="100" height="100" relative="1" as="geometry">
            <mxPoint x="125" y="444" as="sourcePoint" />
            <mxPoint x="838" y="444" as="targetPoint" />
          </mxGeometry>
        </mxCell>
        <mxCell id="JTKkzrfcodYLNeWdXCRE-7" value="CPU" style="whiteSpace=wrap;html=1;aspect=fixed;align=center;verticalAlign=middle;" vertex="1" parent="1">
          <mxGeometry x="679" y="274" width="80" height="80" as="geometry" />
        </mxCell>
      </root>
    </mxGraphModel>
  </diagram>
</mxfile>
